<svg xmlns="http://www.w3.org/2000/svg" width="20" height="20" fill="none"><path fill="#fff" d="M6 9a.968.968 0 0 0 .713-.288A.964.964 0 0 0 7 8a.965.965 0 0 0-.288-.712A.972.972 0 0 0 6 7a.965.965 0 0 0-.712.288A.972.972 0 0 0 5 8c0 .283.096.521.288.713.192.192.43.288.712.287Zm4 0a.968.968 0 0 0 .713-.288A.964.964 0 0 0 11 8a.965.965 0 0 0-.288-.712A.972.972 0 0 0 10 7a.965.965 0 0 0-.712.288A.972.972 0 0 0 9 8c0 .283.096.521.288.713.192.192.43.288.712.287Zm4 0a.968.968 0 0 0 .713-.288A.964.964 0 0 0 15 8a.965.965 0 0 0-.288-.712A.972.972 0 0 0 14 7a.965.965 0 0 0-.712.288A.973.973 0 0 0 13 8c0 .283.096.521.288.713.192.192.43.288.712.287ZM0 20V2C0 1.45.196.98.588.588A1.93 1.93 0 0 1 2 0h16c.55 0 1.021.196 1.413.588.392.392.588.863.587 1.412v12c0 .55-.196 1.021-.587 1.413A1.92 1.92 0 0 1 18 16H4l-4 4Zm3.15-6H18V2H2v13.125L3.15 14Z"/></svg>