<svg xmlns="http://www.w3.org/2000/svg" width="20" height="20" fill="none"><g clip-path="url(#a)"><path stroke="#fff" d="M4.226 16.469v-.25l-.2-.15C1.865 14.454.5 11.998.5 9.258.5 4.457 4.717.5 10 .5s9.5 3.957 9.5 8.76c0 4.802-4.217 8.759-9.5 8.759-.952 0-1.87-.13-2.736-.37l-.195-.054-.178.098-2.665 1.462V16.47Z"/><path fill="#FAFAFA" d="M10.994 12.469 8.448 9.753l-4.97 2.716 5.466-5.803 2.608 2.717 4.908-2.717-5.466 5.803Z"/><path stroke="#fff" d="M10.994 12.469 8.448 9.753l-4.97 2.716 5.466-5.803 2.608 2.717 4.908-2.717-5.466 5.803Z"/></g><defs><clipPath id="a"><path fill="#fff" d="M0 0h20v20H0z"/></clipPath></defs></svg>