<svg xmlns="http://www.w3.org/2000/svg" width="20" height="20" fill="none"><path stroke="#fff" d="m15.133 6.848.001-.013a2.266 2.266 0 0 0-.02-.496.922.922 0 0 0-.31-.58l-.006-.006-.007-.005a1.022 1.022 0 0 0-.406-.193 1.26 1.26 0 0 0-.305-.035c-.278.005-.584.083-1.127.28-.55.2-1.4.544-2.787 1.12a477.21 477.21 0 0 0-5.832 2.513c-.251.1-.474.211-.647.34-.16.119-.364.317-.4.611a.778.778 0 0 0 .17.598c.118.145.271.236.397.296.186.09.437.17.668.242l.187.06c.262.084.573.178.867.252.283.07.592.134.83.14.469.01.933-.183 1.377-.488l1.308-.88c-.123.114-.207.194-.233.22-.063.066-.13.13-.198.197l-.024.023-.184.18c-.128.13-.288.306-.38.518a.913.913 0 0 0 .026.812c.128.246.357.448.63.627l.275-.417-.275.418c.405.267.73.487 1.055.71l.045.03c.341.232.689.468 1.132.76.109.07.211.143.32.22l.068.05c.13.092.272.19.419.277.296.174.66.325 1.098.284.625-.057.98-.634 1.129-1.43.33-1.77.986-5.628 1.139-7.235ZM.5 10a9.5 9.5 0 1 1 19 0 9.5 9.5 0 0 1-19 0Z"/></svg>